<svg xmlns="http://www.w3.org/2000/svg" width="345.858" height="276.301" viewBox="0 0 345.858 276.301"><path d="M0 269.849v6.452h80.924c17.454 0 31.822-12.513 42.422-26.3 44.472-57.869 79.544-85.109 134.021-45.863 35.8 25.791 57.652 72.167 57.652 72.167h5.357s-14.885-49.328-51.523-90.369c-21.255-23.81-44.556-39.565-68.57-46.853l.037-1.515c13.238 0 43.256-15 65.134-36.5 34.629-34.039 80.4-94.678 80.4-94.678V.001h-80.92c-17.454 0-31.822 12.443-42.421 26.234-44.472 57.866-79.543 85.109-134.021 45.866-35.801-25.793-57.62-72.1-57.62-72.1h-5.365s14.86 49.258 51.5 90.3c21.256 23.812 44.556 39.567 68.569 46.855v1.874c-16.569 0-46.914 18.349-65.174 36.144C45.629 209.062 0 269.849 0 269.849" fill="#666"/></svg>